<svg id="Layer_1" xmlns="http://www.w3.org/2000/svg" viewBox="0 0 247 52"><style>.st0{fill:#dc4405}.st1{fill:url(#SVGID_1_)}</style><path class="st0" d="M71.7 49.3c2.2 0 3.9-.6 5.1-1.8 1.2-1.2 1.9-2.8 1.9-5v-2.1l-3.5.1c-2.8.1-4.8.5-6 1.3-1.2.8-1.8 1.9-1.8 3.5 0 1.3.4 2.2 1.1 2.9.8.8 1.8 1.1 3.2 1.1m7.9 2.4l-.7-3.3h-.2c-1.1 1.4-2.3 2.4-3.4 2.9s-2.6.8-4.3.8c-2.3 0-4.1-.6-5.3-1.8-1.3-1.2-1.9-2.8-1.9-5 0-4.6 3.7-7.1 11.1-7.3l3.9-.1v-1.4c0-1.8-.4-3.1-1.2-4-.8-.9-2-1.3-3.7-1.3-1.9 0-4.1.6-6.5 1.8l-1.1-2.7c1.1-.6 2.4-1.1 3.7-1.4 1.3-.3 2.7-.5 4-.5 2.7 0 4.8.6 6.1 1.8 1.3 1.2 2 3.2 2 5.8v15.7h-2.5zm17.8-2.4c2.4 0 4.1-.6 5.2-1.9 1.1-1.3 1.6-3.4 1.6-6.2v-.7c0-3.3-.5-5.6-1.6-7-1.1-1.4-2.8-2.1-5.2-2.1-2 0-3.6.8-4.7 2.4-1.1 1.6-1.6 3.8-1.6 6.7 0 2.9.5 5.1 1.6 6.6 1.1 1.4 2.7 2.2 4.7 2.2m7-.6h-.2c-1.6 2.3-4 3.5-7.2 3.5-3 0-5.3-1-7-3.1-1.7-2.1-2.5-5-2.5-8.7 0-3.8.8-6.7 2.5-8.8 1.7-2.1 4-3.1 7-3.1 3.1 0 5.5 1.1 7.2 3.4h.3l-.1-1.7-.1-1.6v-9.3h3.5v32.6H105l-.6-3.2zm15.8 3l-8.7-22.9h3.7l4.9 13.6c1.1 3.2 1.8 5.2 2 6.2h.2c.2-.7.6-2.3 1.5-4.6.8-2.3 2.6-7.4 5.5-15.2h3.7l-8.7 22.9h-4.1zm22.2-2.4c2.2 0 3.9-.6 5.1-1.8 1.2-1.2 1.9-2.8 1.9-5v-2.1l-3.5.1c-2.8.1-4.8.5-6 1.3-1.2.8-1.8 1.9-1.8 3.5 0 1.3.4 2.2 1.1 2.9.8.8 1.8 1.1 3.2 1.1m7.8 2.4l-.7-3.3h-.2c-1.1 1.4-2.3 2.4-3.4 2.9s-2.6.8-4.3.8c-2.3 0-4.1-.6-5.3-1.8-1.3-1.2-1.9-2.8-1.9-5 0-4.6 3.7-7.1 11.1-7.3l3.9-.1v-1.4c0-1.8-.4-3.1-1.2-4-.8-.9-2-1.3-3.7-1.3-1.9 0-4.1.6-6.5 1.8l-1.1-2.7c1.1-.6 2.4-1.1 3.7-1.4 1.3-.3 2.7-.5 4-.5 2.7 0 4.8.6 6.1 1.8 1.3 1.2 2 3.2 2 5.8v15.7h-2.5zm24.8 0V36.9c0-1.9-.4-3.3-1.3-4.2-.9-.9-2.2-1.4-4-1.4-2.4 0-4.2.6-5.3 1.9-1.1 1.3-1.7 3.4-1.7 6.4v12h-3.5V28.8h2.8l.6 3.1h.2c.7-1.1 1.7-2 3-2.6 1.3-.6 2.7-.9 4.3-.9 2.8 0 4.8.7 6.2 2 1.4 1.3 2.1 3.5 2.1 6.4v15H175zm19.2.5c-3.3 0-5.9-1-7.7-3.1-1.8-2-2.7-4.9-2.7-8.7 0-3.8.9-6.8 2.8-8.9 1.8-2.1 4.5-3.1 7.9-3.1 1.1 0 2.2.1 3.3.4 1.1.2 2 .5 2.6.8l-1.1 3c-.8-.3-1.6-.6-2.5-.8-.9-.2-1.7-.3-2.4-.3-4.7 0-7 3-7 8.9 0 2.8.6 5 1.7 6.5s2.8 2.3 5.1 2.3c1.9 0 3.9-.4 5.9-1.2v3c-1.7.8-3.6 1.2-5.9 1.2m19-20.9c-1.8 0-3.3.6-4.4 1.8-1.1 1.2-1.7 2.9-1.9 5h12c0-2.2-.5-3.9-1.5-5-1-1.2-2.4-1.8-4.2-1.8m.9 20.9c-3.4 0-6.1-1-8-3.1-2-2.1-2.9-4.9-2.9-8.6 0-3.7.9-6.6 2.7-8.8 1.8-2.2 4.3-3.3 7.3-3.3 2.9 0 5.1.9 6.8 2.8 1.7 1.9 2.5 4.4 2.5 7.5v2.2h-15.8c.1 2.7.7 4.7 2 6.1 1.3 1.4 3.1 2.1 5.5 2.1 2.5 0 4.9-.5 7.3-1.5v3.1c-1.2.5-2.4.9-3.5 1.1-1 .3-2.3.4-3.9.4m22.7-2.9c2.4 0 4.1-.6 5.2-1.9 1.1-1.3 1.6-3.4 1.6-6.2v-.7c0-3.3-.5-5.6-1.6-7-1.1-1.4-2.8-2.1-5.2-2.1-2 0-3.6.8-4.7 2.4-1.1 1.6-1.6 3.8-1.6 6.7 0 2.9.5 5.1 1.6 6.6 1 1.4 2.6 2.2 4.7 2.2m6.9-.6h-.2c-1.6 2.3-4 3.5-7.2 3.5-3 0-5.3-1-7-3.1-1.7-2.1-2.5-5-2.5-8.7 0-3.8.8-6.7 2.5-8.8 1.7-2.1 4-3.1 7-3.1 3.1 0 5.5 1.1 7.2 3.4h.3l-.1-1.7-.1-1.6v-9.3h3.5v32.6h-2.8l-.6-3.2z"/><linearGradient id="SVGID_1_" gradientUnits="userSpaceOnUse" x1="29.541" y1=".89" x2="29.541" y2="51.876"><stop offset="0" stop-color="#FFCD00"/><stop offset="1" stop-color="#DC4405"/></linearGradient><path class="st1" d="M29.5 1L0 52.2h15.6l13.9-24.1 13.9 24.1h15.7z"/></svg>